<?xml version="1.0" standalone="no"?>
<!DOCTYPE svg PUBLIC "-//W3C//DTD SVG 20010904//EN"
 "http://www.w3.org/TR/2001/REC-SVG-20010904/DTD/svg10.dtd">
<svg version="1.0" xmlns="http://www.w3.org/2000/svg"
 width="449.000000pt" height="417.000000pt" viewBox="0 0 449.000000 417.000000"
 preserveAspectRatio="xMidYMid meet">

<g transform="translate(0.000000,417.000000) scale(0.100000,-0.100000)"
fill="#000000" stroke="none">
<path d="M505 4141 c-61 -25 -80 -108 -36 -155 13 -14 31 -26 41 -28 15 -3
-15 -114 -237 -858 -246 -829 -253 -856 -243 -900 27 -108 129 -228 236 -277
50 -22 66 -25 140 -21 l84 4 0 -895 c0 -1001 -4 -944 70 -983 33 -17 104 -18
1688 -18 1819 0 1701 -4 1742 62 20 32 20 48 20 934 l0 900 84 -4 c78 -4 90
-2 150 26 107 50 200 162 226 271 10 44 2 75 -243 901 -218 735 -251 855 -237
858 28 5 60 46 66 84 5 30 1 41 -24 69 l-30 34 -1739 2 c-956 1 -1747 -2
-1758 -6z m555 -907 l0 -126 39 35 c71 64 168 72 221 18 37 -37 50 -104 50
-266 l0 -135 -29 0 -29 0 -4 153 c-5 161 -14 196 -54 217 -35 19 -101 6 -136
-27 -52 -49 -58 -71 -58 -213 l0 -130 -30 0 -30 0 0 300 0 300 30 0 30 0 0
-126z m-130 81 l0 -25 -100 0 -100 0 0 -265 0 -265 -35 0 -35 0 0 265 0 265
-100 0 -100 0 0 25 0 25 235 0 235 0 0 -25z m1574 -9 c50 -29 52 -33 32 -61
-13 -18 -14 -18 -43 3 -107 76 -273 38 -273 -63 0 -57 29 -77 155 -109 170
-43 212 -80 202 -180 -9 -94 -94 -142 -237 -134 -54 3 -91 12 -131 32 -73 34
-83 46 -64 74 l15 21 49 -30 c63 -39 158 -56 219 -40 59 16 82 42 82 91 0 50
-26 76 -100 96 -208 57 -232 70 -251 132 -22 76 23 157 107 188 63 23 181 14
238 -20z m226 -46 l0 -70 50 0 c47 0 50 -2 50 -25 0 -23 -3 -25 -50 -25 l-50
0 0 -146 c0 -179 3 -187 73 -182 47 3 52 1 55 -18 2 -17 -5 -24 -29 -33 -57
-20 -98 -14 -130 18 l-29 29 0 166 0 165 -27 3 c-20 2 -29 9 -31 26 -3 19 1
22 27 22 l31 0 0 70 0 70 30 0 30 0 0 -70z m-1005 -71 c80 -22 155 -124 155
-211 l0 -28 -186 0 -185 0 6 -22 c13 -43 41 -83 75 -105 58 -40 156 -26 194
28 11 16 21 20 41 15 21 -5 24 -10 15 -25 -26 -50 -105 -91 -176 -91 -179 0
-278 222 -164 367 26 34 54 53 99 69 45 16 75 17 126 3z m1465 -10 c60 -27 79
-45 106 -104 88 -188 -90 -389 -271 -306 -139 63 -175 243 -72 356 67 73 152
93 237 54z m741 10 c82 -25 149 -114 149 -199 l0 -40 -181 0 -181 0 6 -31 c15
-78 79 -124 163 -117 44 4 60 11 87 37 25 25 39 31 55 26 27 -8 26 -16 -4 -49
-110 -119 -315 -66 -361 93 -50 172 100 329 267 280z m-471 -45 l0 -45 33 35
c36 37 73 56 113 56 19 0 24 -5 24 -24 0 -19 -7 -26 -32 -31 -52 -12 -87 -34
-108 -68 -17 -28 -20 -51 -20 -169 l0 -138 -30 0 -30 0 0 215 0 215 25 0 c23
0 25 -4 25 -46z m-2084 -1124 c37 -39 78 -70 119 -91 59 -29 70 -31 147 -27
116 5 198 50 276 151 l21 29 57 -61 c37 -40 77 -71 119 -92 59 -29 70 -31 147
-27 116 5 198 50 276 151 l21 29 57 -61 c37 -40 77 -71 119 -92 59 -29 70 -31
147 -27 119 5 197 48 276 152 l22 28 52 -57 c87 -95 153 -127 264 -126 84 0
169 37 224 97 l40 44 0 -726 c0 -656 -2 -727 -16 -750 -38 -57 50 -54 -1496
-54 -1138 1 -1428 3 -1446 14 -13 7 -32 26 -43 42 -18 28 -19 54 -19 752 l0
722 36 -40 c20 -22 64 -54 98 -70 139 -68 314 -23 409 105 17 24 33 44 35 45
2 0 28 -27 58 -60z"/>
<path d="M1605 3136 c-16 -7 -38 -22 -47 -32 -18 -20 -48 -85 -48 -104 0 -6
56 -10 156 -10 l157 0 -7 33 c-19 95 -123 152 -211 113z"/>
<path d="M3066 3140 c-64 -20 -109 -87 -109 -165 0 -59 20 -102 63 -138 94
-80 227 -8 238 127 8 113 -92 206 -192 176z"/>
<path d="M3802 3133 c-41 -20 -71 -62 -79 -108 l-6 -35 152 0 c150 0 151 0
151 23 0 36 -42 98 -80 118 -43 23 -94 24 -138 2z"/>
</g>
</svg>
